<svg xmlns="http://www.w3.org/2000/svg" viewBox="0 0 960 480" width="960" height="480" role="img" aria-labelledby="d22n-t d22n-d">
<title id="d22n-t">Numbering across imported projects</title>
<desc id="d22n-d">Upper panel, Library: hosts Server uid 0 and Client uid 1; packs Hello wire id 0, Stamp id 1, Info id 2, and Trace without a wire id because it travels only inside Info. Lower panel, MyProject : Library: the imported hosts Server 0 and Client 1, greyed, keep their uids, and the own host Metrics takes uid 2, continuing after the largest imported uid; the imported packs Hello 0, Stamp 1 and Info 2 keep their ids, and the own pack Sample takes id 3, above the largest imported id. If ServerToMetrics sent Trace, Trace would get id 4 from MyProject and be listed in the section "imported packs, sent under an id of this project" as &lt;see cref='com.lib.Library.Trace'/&gt;4. At the bottom, the project line &lt;see cref='MyProject'/&gt;Ƌǅǥźč ō: the own number followed by ō, the slot of Library, with an arrow up to the Library panel.</desc>
<rect width="960" height="480" rx="10" fill="#2b2b2b"/>
<g font-family="Segoe UI,DejaVu Sans,Helvetica,Arial,sans-serif">

<!-- UPPER: Library -->
<rect x="20" y="20" width="920" height="140" rx="8" fill="#262626" stroke="#4a4a4a" stroke-width="1.4"/>
<text x="56" y="51" font-size="18" fill="#e8833a" font-weight="600">Library</text>
<text x="134" y="50" font-size="13" fill="#9aa0a6" font-family="Consolas,DejaVu Sans Mono,Menlo,monospace">&lt;see cref='Library'/&gt;Ťǅǥźč</text>

<text x="56" y="84" font-size="12.5" fill="#9aa0a6">hosts - uid</text>
<rect x="56" y="94" width="114" height="28" rx="6" fill="#303236" stroke="#6b6f75" stroke-width="1.3"/>
<text x="68" y="113" font-size="13.5" fill="#e8eaed">Server<tspan dx="10">uid 0</tspan></text>
<rect x="180" y="94" width="110" height="28" rx="6" fill="#303236" stroke="#6b6f75" stroke-width="1.3"/>
<text x="192" y="113" font-size="13.5" fill="#e8eaed">Client<tspan dx="10">uid 1</tspan></text>

<text x="380" y="84" font-size="12.5" fill="#9aa0a6">packs - wire id</text>
<rect x="380" y="94" width="100" height="28" rx="6" fill="#303236" stroke="#6b6f75" stroke-width="1.3"/>
<text x="392" y="113" font-size="13.5" fill="#e8eaed">Hello<tspan dx="10">id 0</tspan></text>
<rect x="490" y="94" width="104" height="28" rx="6" fill="#303236" stroke="#6b6f75" stroke-width="1.3"/>
<text x="502" y="113" font-size="13.5" fill="#e8eaed">Stamp<tspan dx="10">id 1</tspan></text>
<rect x="604" y="94" width="88" height="28" rx="6" fill="#303236" stroke="#6b6f75" stroke-width="1.3"/>
<text x="616" y="113" font-size="13.5" fill="#e8eaed">Info<tspan dx="10">id 2</tspan></text>
<rect x="702" y="94" width="200" height="28" rx="6" fill="none" stroke="#6b6f75" stroke-width="1.3" stroke-dasharray="4 3"/>
<text x="714" y="113" font-size="13.5" fill="#e8eaed">Trace<tspan dx="10" fill="#9aa0a6" font-size="12.5">no id - only inside Info</tspan></text>

<!-- LOWER: MyProject : Library -->
<rect x="20" y="180" width="920" height="280" rx="8" fill="#262626" stroke="#4a4a4a" stroke-width="1.4"/>
<text x="56" y="211" font-size="18" fill="#e8833a" font-weight="600">MyProject : Library</text>

<text x="56" y="244" font-size="12.5" fill="#9aa0a6">hosts - uid</text>
<rect x="56" y="254" width="80" height="28" rx="6" fill="#232323" stroke="#4a4a4a" stroke-width="1.3"/>
<text x="68" y="273" font-size="13.5" fill="#9aa0a6">Server<tspan dx="8">0</tspan></text>
<rect x="144" y="254" width="76" height="28" rx="6" fill="#232323" stroke="#4a4a4a" stroke-width="1.3"/>
<text x="156" y="273" font-size="13.5" fill="#9aa0a6">Client<tspan dx="8">1</tspan></text>
<rect x="228" y="254" width="122" height="28" rx="6" fill="#3b3424" stroke="#f2c14e" stroke-width="1.4"/>
<text x="240" y="273" font-size="13.5" fill="#f2c14e">Metrics<tspan dx="10">uid 2</tspan></text>
<text x="289" y="302" font-size="12" fill="#9aa0a6" text-anchor="middle">continues after the</text>
<text x="289" y="318" font-size="12" fill="#9aa0a6" text-anchor="middle">largest imported uid</text>

<text x="380" y="244" font-size="12.5" fill="#9aa0a6">packs - wire id</text>
<rect x="380" y="254" width="70" height="28" rx="6" fill="#232323" stroke="#4a4a4a" stroke-width="1.3"/>
<text x="392" y="273" font-size="13.5" fill="#9aa0a6">Hello<tspan dx="8">0</tspan></text>
<rect x="458" y="254" width="74" height="28" rx="6" fill="#232323" stroke="#4a4a4a" stroke-width="1.3"/>
<text x="470" y="273" font-size="13.5" fill="#9aa0a6">Stamp<tspan dx="8">1</tspan></text>
<rect x="540" y="254" width="60" height="28" rx="6" fill="#232323" stroke="#4a4a4a" stroke-width="1.3"/>
<text x="552" y="273" font-size="13.5" fill="#9aa0a6">Info<tspan dx="8">2</tspan></text>
<text x="490" y="302" font-size="12" fill="#9aa0a6" text-anchor="middle">keep their ids</text>

<rect x="614" y="254" width="112" height="28" rx="6" fill="#3b3424" stroke="#f2c14e" stroke-width="1.4"/>
<text x="626" y="273" font-size="13.5" fill="#f2c14e">Sample<tspan dx="10">id 3</tspan></text>
<text x="670" y="302" font-size="12" fill="#9aa0a6" text-anchor="middle">above the largest</text>
<text x="670" y="318" font-size="12" fill="#9aa0a6" text-anchor="middle">imported id</text>

<rect x="380" y="330" width="420" height="74" rx="6" fill="#2a2533" stroke="#a06fd0" stroke-width="1.2"/>
<text x="394" y="350" font-size="12.5" fill="#a06fd0">imported packs, sent under an id of this project</text>
<rect x="394" y="362" width="100" height="28" rx="6" fill="#342a42" stroke="#a06fd0" stroke-width="1.4"/>
<text x="406" y="381" font-size="13.5" fill="#a06fd0">Trace<tspan dx="10">id 4</tspan></text>
<text x="508" y="374" font-size="12" fill="#9aa0a6">(if ServerToMetrics sent Trace)</text>
<text x="508" y="392" font-size="12" fill="#9aa0a6" font-family="Consolas,DejaVu Sans Mono,Menlo,monospace">&lt;see cref='com.lib.Library.Trace'/&gt;4</text>

<!-- the project line and the slot -->
<g font-family="Consolas,DejaVu Sans Mono,Menlo,monospace" font-size="15">
<text x="56" y="444" fill="#e8eaed">&lt;see cref='MyProject'/&gt;</text>
<text x="247" y="444" fill="#e8eaed">Ƌǅǥźč</text>
<rect x="292" y="428" width="17" height="21" rx="3" fill="#3b3424" stroke="#f2c14e" stroke-width="1.3"/>
<text x="296" y="444" fill="#f2c14e">ō</text>
</g>
<text x="322" y="444" font-size="12.5" fill="#9aa0a6">own number, then one slot per imported project: zig-zag(own - imported)</text>

<path d="M300 428 V416 H34 V46 H40" fill="none" stroke="#f2c14e" stroke-width="1.4"/>
<path d="M48 46 L40 41.5 L40 50.5 Z" fill="#f2c14e"/>
<text x="44" y="408" font-size="12.5" fill="#f2c14e">slot of Library</text>
</g>
</svg>
