<svg xmlns="http://www.w3.org/2000/svg" viewBox="0 0 620 380" width="620" height="380" role="img"><rect width="620" height="380" fill="#2b2b2b"/><defs><pattern id="hatch" width="6" height="6" patternTransform="rotate(45)" patternUnits="userSpaceOnUse"><line x1="0" y1="0" x2="0" y2="6" stroke="#ffffff" stroke-width="3"/></pattern></defs><line x1="34" y1="272" x2="596" y2="272" stroke="#9aa0a6" stroke-width="1.2"/><line x1="112" y1="74" x2="112" y2="346" stroke="#e8833a" stroke-width="1.6"/><text x="112" y="44" font-family="Segoe UI,DejaVu Sans,Helvetica,Arial,sans-serif" font-size="17" font-weight="700" fill="#e8eaed" text-anchor="middle">exT</text><text x="112" y="64" font-family="Segoe UI,DejaVu Sans,Helvetica,Arial,sans-serif" font-size="15" fill="#e8eaed" text-anchor="middle">int <tspan font-size="12" fill="#9aa0a6">4 bytes</tspan></text><rect x="101" y="85.9" width="22" height="48" fill="#4a90d9" opacity="1" stroke="#e8eaed" stroke-width="1"/><rect x="101" y="85.9" width="22" height="48" fill="url(#hatch)" opacity=".7" stroke="#e8eaed" stroke-width="1"/><text x="95" y="89.9" font-family="Segoe UI,DejaVu Sans,Helvetica,Arial,sans-serif" font-size="12" fill="#e8eaed" text-anchor="end" paint-order="stroke" stroke="#2b2b2b" stroke-width="3.5" stroke-linejoin="round">1 080 000</text><text x="95" y="137.4" font-family="Segoe UI,DejaVu Sans,Helvetica,Arial,sans-serif" font-size="12" fill="#e8eaed" text-anchor="end" paint-order="stroke" stroke="#2b2b2b" stroke-width="3.5" stroke-linejoin="round">1 000 000</text><line x1="179" y1="18" x2="243" y2="18" stroke="#f2c14e" stroke-width="2"/><path d="M179 18 L186 13.8 L186 22.2 Z" fill="#f2c14e"/><path d="M243 18 L236 13.8 L236 22.2 Z" fill="#f2c14e"/><line x1="310" y1="74" x2="310" y2="346" stroke="#e8833a" stroke-width="1.6"/><text x="310" y="44" font-family="Segoe UI,DejaVu Sans,Helvetica,Arial,sans-serif" font-size="17" font-weight="700" fill="#e8eaed" text-anchor="middle">inT</text><text x="310" y="64" font-family="Segoe UI,DejaVu Sans,Helvetica,Arial,sans-serif" font-size="15" fill="#e8eaed" text-anchor="middle">int <tspan font-size="12" fill="#9aa0a6">4 bytes</tspan></text><rect x="299" y="224.5" width="22" height="48" fill="#4a90d9" opacity="1" stroke="#e8eaed" stroke-width="1"/><rect x="299" y="224.5" width="22" height="48" fill="url(#hatch)" opacity=".7" stroke="#e8eaed" stroke-width="1"/><text x="293" y="228.5" font-family="Segoe UI,DejaVu Sans,Helvetica,Arial,sans-serif" font-size="12" fill="#e8eaed" text-anchor="end" paint-order="stroke" stroke="#2b2b2b" stroke-width="3.5" stroke-linejoin="round">80 000</text><text x="325" y="287" font-family="Segoe UI,DejaVu Sans,Helvetica,Arial,sans-serif" font-size="12" fill="#9aa0a6">0</text><line x1="376" y1="18" x2="440" y2="18" stroke="#f2c14e" stroke-width="2"/><path d="M376 18 L383 13.8 L383 22.2 Z" fill="#f2c14e"/><path d="M440 18 L433 13.8 L433 22.2 Z" fill="#f2c14e"/><line x1="506" y1="74" x2="506" y2="346" stroke="#e8833a" stroke-width="1.6"/><text x="506" y="44" font-family="Segoe UI,DejaVu Sans,Helvetica,Arial,sans-serif" font-size="17" font-weight="700" fill="#e8eaed" text-anchor="middle">ioT</text><text x="506" y="64" font-family="Segoe UI,DejaVu Sans,Helvetica,Arial,sans-serif" font-size="15" fill="#e8eaed" text-anchor="middle">int <tspan font-size="12" fill="#4fb3ff">3 bytes</tspan></text><rect x="495" y="224.5" width="22" height="48" fill="#4a90d9" opacity="1" stroke="#e8eaed" stroke-width="1"/><rect x="495" y="224.5" width="22" height="48" fill="url(#hatch)" opacity=".7" stroke="#e8eaed" stroke-width="1"/><text x="489" y="228.5" font-family="Segoe UI,DejaVu Sans,Helvetica,Arial,sans-serif" font-size="12" fill="#e8eaed" text-anchor="end" paint-order="stroke" stroke="#2b2b2b" stroke-width="3.5" stroke-linejoin="round">80 000</text><text x="521" y="287" font-family="Segoe UI,DejaVu Sans,Helvetica,Arial,sans-serif" font-size="12" fill="#9aa0a6">0</text></svg>